<?xml version="1.0" encoding="utf-8"?>
<!-- Generator: Adobe Illustrator 16.2.1, SVG Export Plug-In . SVG Version: 6.00 Build 0)  -->
<!DOCTYPE svg PUBLIC "-//W3C//DTD SVG 1.1//EN" "http://www.w3.org/Graphics/SVG/1.1/DTD/svg11.dtd">
<svg version="1.1" id="Layer_1" xmlns="http://www.w3.org/2000/svg" xmlns:xlink="http://www.w3.org/1999/xlink" x="0px" y="0px"
	 width="60.807px" height="38.75px" viewBox="0 0 60.807 38.75" enable-background="new 0 0 60.807 38.75" xml:space="preserve">
<path fill="#FFFFFF" d="M29.25,3.589L25.664,0C19.947,0.495,12.354,6.277,7.467,19.701C4.789,27.065,2.059,31.425,0,33.942
	l4.812,4.808c5-1.808,11.08-7.5,15.287-19.049C23.205,11.168,26.678,6.105,29.25,3.589z"/>
<path fill="#FFFFFF" d="M45.027,3.589L41.441,0c-5.717,0.495-13.309,6.277-18.197,19.701c-2.678,7.364-5.408,11.724-7.467,14.241
	l4.811,4.808c5.004-1.808,11.084-7.5,15.291-19.049C38.984,11.168,42.457,6.105,45.027,3.589z"/>
<path fill="#FFFFFF" d="M60.807,3.589L57.219,0C51.504,0.495,43.91,6.277,39.025,19.701c-2.682,7.364-5.412,11.724-7.469,14.241
	l4.809,4.808c5.006-1.808,11.086-7.5,15.291-19.049C54.762,11.168,58.234,6.105,60.807,3.589z"/>
<g>
	<path fill="#FFFFFF" d="M59.434,30.508c0.893,0.906,1.373,2.109,1.373,3.399c0,1.334-0.504,2.536-1.428,3.431
		c-0.943,0.917-2.176,1.412-3.428,1.412c-1.295,0-2.506-0.519-3.441-1.466c-0.91-0.92-1.389-2.122-1.389-3.377
		c0-0.868,0.229-1.706,0.709-2.521c0.867-1.468,2.373-2.331,4.121-2.331C57.285,29.055,58.498,29.556,59.434,30.508z M53.148,31.002
		c-0.785,0.783-1.227,1.826-1.227,2.89c0,1.067,0.4,2.071,1.16,2.829c0.771,0.788,1.799,1.228,2.869,1.228
		c1.053,0,2.068-0.426,2.865-1.185c0.764-0.734,1.189-1.752,1.189-2.787c0-1.164-0.387-2.134-1.145-2.912
		c-0.789-0.8-1.777-1.214-2.896-1.214C54.871,29.851,53.908,30.239,53.148,31.002z M56.055,31.12c1.537,0,2.297,0.521,2.297,1.548
		c0,0.708-0.441,1.239-1.172,1.424l1.201,2.404h-1.457l-1.025-2.205h-0.641v2.205h-1.307V31.12H56.055z M55.258,33.508h0.641
		c0.744,0,1.105-0.227,1.105-0.759c0-0.563-0.387-0.802-1.172-0.802h-0.574V33.508z"/>
</g>
<path fill="#FFFFFF" d="M29.25,3.589L25.664,0C19.947,0.495,12.354,6.277,7.467,19.701C4.789,27.065,2.059,31.425,0,33.942
	l4.812,4.808c5-1.808,11.08-7.5,15.287-19.049C23.205,11.168,26.678,6.105,29.25,3.589z"/>
<path fill="#FFFFFF" d="M45.027,3.589L41.441,0c-5.717,0.495-13.309,6.277-18.197,19.701c-2.678,7.364-5.408,11.724-7.467,14.241
	l4.811,4.808c5.004-1.808,11.084-7.5,15.291-19.049C38.984,11.168,42.457,6.105,45.027,3.589z"/>
<path fill="#FFFFFF" d="M60.807,3.589L57.219,0C51.504,0.495,43.91,6.277,39.025,19.701c-2.682,7.364-5.412,11.724-7.469,14.241
	l4.809,4.808c5.006-1.808,11.086-7.5,15.291-19.049C54.762,11.168,58.234,6.105,60.807,3.589z"/>
<g>
	<path fill="#FFFFFF" d="M59.434,30.508c0.893,0.906,1.373,2.109,1.373,3.399c0,1.334-0.504,2.536-1.428,3.431
		c-0.943,0.917-2.176,1.412-3.428,1.412c-1.295,0-2.506-0.519-3.441-1.466c-0.91-0.92-1.389-2.122-1.389-3.377
		c0-0.868,0.229-1.706,0.709-2.521c0.867-1.468,2.373-2.331,4.121-2.331C57.285,29.055,58.498,29.556,59.434,30.508z M53.148,31.002
		c-0.785,0.783-1.227,1.826-1.227,2.89c0,1.067,0.4,2.071,1.16,2.829c0.771,0.788,1.799,1.228,2.869,1.228
		c1.053,0,2.068-0.426,2.865-1.185c0.764-0.734,1.189-1.752,1.189-2.787c0-1.164-0.387-2.134-1.145-2.912
		c-0.789-0.8-1.777-1.214-2.896-1.214C54.871,29.851,53.908,30.239,53.148,31.002z M56.055,31.12c1.537,0,2.297,0.521,2.297,1.548
		c0,0.708-0.441,1.239-1.172,1.424l1.201,2.404h-1.457l-1.025-2.205h-0.641v2.205h-1.307V31.12H56.055z M55.258,33.508h0.641
		c0.744,0,1.105-0.227,1.105-0.759c0-0.563-0.387-0.802-1.172-0.802h-0.574V33.508z"/>
</g>
</svg>
